<?xml version="1.0" standalone="no"?>
<svg viewBox="0 0 200 200" xmlns="http://www.w3.org/2000/svg">
  <path fill="#D6F4ED" d="M26.9,-38.4C37.8,-34.9,51.5,-32.3,61.6,-24.1C71.6,-15.8,77.9,-1.9,73.6,8.8C69.3,19.5,54.5,26.9,44,36.8C33.4,46.7,27.2,59.1,16,69.1C4.7,79.2,-11.5,86.9,-21.8,80.9C-32.1,74.9,-36.5,55.1,-40.7,40.6C-44.9,26.1,-49,16.9,-52.2,6.4C-55.3,-4,-57.6,-15.7,-52.1,-22.2C-46.7,-28.8,-33.5,-30.2,-23.5,-34.2C-13.6,-38.1,-6.8,-44.5,0.6,-45.5C8,-46.5,16,-41.9,26.9,-38.4Z" transform="translate(100 100)" />
</svg>
