<?xml version="1.0" standalone="no"?>
<svg viewBox="0 0 200 200" xmlns="http://www.w3.org/2000/svg">
  <path fill="#D6F4ED" d="M45.6,-68.9C59.6,-61.9,71.7,-50.1,80,-35.5C88.2,-20.9,92.4,-3.5,87.2,10.5C82.1,24.6,67.5,35.3,54.1,41.9C40.6,48.5,28.1,51,16.7,52.4C5.2,53.7,-5.4,54,-13.8,50.1C-22.2,46.2,-28.5,38.1,-41.9,31.4C-55.4,24.7,-76,19.3,-83.7,8.1C-91.4,-3.1,-86.1,-20,-78.8,-35.9C-71.4,-51.9,-62,-66.8,-48.5,-74C-35,-81.2,-17.5,-80.8,-0.9,-79.5C15.8,-78.1,31.6,-75.9,45.6,-68.9Z" transform="translate(100 100)" />
</svg>
